<!-- Created with Inkscape (http://www.inkscape.org/) -->
<svg xmlns:rdf="http://www.w3.org/1999/02/22-rdf-syntax-ns#" xmlns="http://www.w3.org/2000/svg" height="390" width="600" version="1.1" xmlns:cc="http://creativecommons.org/ns#" xmlns:dc="http://purl.org/dc/elements/1.1/">
 <metadata>
  <rdf:RDF>
   <cc:Work rdf:about="">
    <dc:format>image/svg+xml</dc:format>
    <dc:type rdf:resource="http://purl.org/dc/dcmitype/StillImage"/>
    <dc:title/>
   </cc:Work>
  </rdf:RDF>
 </metadata>
 <g transform="translate(-186.9375,-417.04969)">
  <path style="stroke-linejoin:miter;stroke:#000000;stroke-linecap:butt;stroke-width:1px;fill:#333333;" d="m597.12,402.31c-5.384,0.17543-6.8857,4.4818-10.906,15.938l-92.3,285.81,197.59,64.13s-34.874-12.692,5.8125-78.094,8.1562-77.344,8.1562-77.344,34.642,11.241,35.344-68.531c0-16.456,1.1033-47.647,35.219-36.562l-18.812-6.0938c-18.42-5.99-18.77-6.53-11.78-27.83l7.0625-21.719-140.12-46.25c-7.4014-2.205-12.02-3.574-15.25-3.4688zm-234.9,8.47-164.78,52.91s47.078,0.36458,49.5,80.062c2.4224,79.698,31.875,70.125,31.875,70.125s-29.283,10.116,14.906,75.156c44.18,65.03,2.58,78.96,2.58,78.96l197.56-64-89.344-274.97-16.344,5.3125c-16.28,4.6691-16.513,4.0504-21.156-9.125zm244.53,25.88c59.52,19.33,108.79,39.55,72.25,157.03-28.62,92.02-96.77,69.9-138.22,56.43zm-286.22,27.75c36.522,0.0574,51.782,20.43,66.781,55.594,21.818,51.147-1.5952,91.153-49.406,106.69l28.1,86.87-23.25,7.56-87.19-243.68c27.358-8.8892,48.368-13.057,64.969-13.031zm300.31,8.84-48.4,156.53c47.023,15.279,75.161-24.13,82.406-49.469,13.239-46.3,17.725-90.256-34-107.06zm-300.72,18.25c-6.8865,0.076-14.584,1.7045-23.188,4.5l32.375,101.47c41.5-10.67,41.5-32.29,29.42-69.47-8.68-26.72-21-36.69-38.6-36.5zm121.19,153.53c7.3883-0.21055,11.901,6.7866,13.688,12.094l7.4375,22.812-12.031,3.9375-5.6875-17.469c-1.2563-4.6757-4.1577-11.434-9.5-10-6.0048,2.3087-5.9443,8.8606-4.4688,13.5l6.0312,18.406-11.969,3.9062-12.25-37.406,11.969-3.9062,1.8125,5.4688c2.4166-6.5242,8.8072-10.966,14.969-11.344zm-43.43,18.03c3.8742,1.6676,6.7906,5.4763,8.75,11.469l7,21.344-12.062,3.9688-1.8125-5.5625c-1.6303,5.5448-5.8354,9.0851-10.625,10.688-3.8762,1.2674-7.3674,1.1748-10.531-0.28125-6.7411-3.6717-9.2923-13.196-5.1562-18.781,6.4716-6.1234,12.147-7.3677,20.281-10.031-2.1033-5.5349-7.2378-4.7139-11.312-3.4062-4.7245,1.5995-9.0955,4.0813-12.312,7.4375l-2.9688-9.125c4.8169-2.9475,9.858-5.3252,14.844-6.9688,5.2078-1.5579,11.041-2.8288,15.906-0.75zm156.31,1.7812c13.16,4.6002,18.379,13.705,15,25.875-4.7884,13.378-14.606,17.16-26.5,13.844-13.194-4.6144-18.49-13.673-15.094-25.906,4.661-13.01,14.204-17.214,26.594-13.812zm-9.4688,9.7812c-1.9505,1.5086-3.449,4.0634-4.5,7.6875s-1.178,6.6282-0.34375,8.9688c2.2111,4.7522,8.4444,6.3229,12.188,3.5312,1.957-1.5311,3.4802-4.1259,4.5312-7.75s1.1532-6.5882,0.3125-8.9062c-2.1276-4.7644-8.2692-6.3566-12.188-3.5312zm68.969,9.75-2.8438,9.875c-2.5113-2.9807-5.7073-5.2272-9.1562-6.25-6.999-1.9392-12.207,2.3472-13.938,8.0938-1.9788,6.8806,1.5418,12.531,7.4375,14.312,3.7803,1.021,7.6881,0.88305,11.062-0.40625l-2.8438,9.9062c-4.2485,0.23763-8.4522-0.1942-12.25-1.2812-6.8206-1.978-11.631-5.2697-14.469-9.875-2.8309-4.6278-3.3395-10.046-1.5312-16.281,1.8082-6.2353,5.1389-10.565,10-12.938,10.233-3.6544,20.504-0.91362,28.531,4.8438zm-217.63-1.37l-6.2188,2.0312c-3.6275,1.1381-7.0147,3.8098-5.875,7.4688,1.318,3.374,4.4943,3.8626,7.3125,2.9688,5.6159-2.0503,6.1937-7.9572,4.7812-12.469z" transform="translate(0,28.36218)"/>
  <path style="fill:#333333;" d="m442.15,573.18-9.4046-28.944c23.511-7.6393,51.725,9.0691,79.323,18.036l-8.7888,23.046,45.18-20.951-18.196-56-8.1752,25.161c-30.815-10.012-56.312,32.367-79.939,39.652z"/>
  <path style="fill:#333333;" d="m366.33,439.18,3.7205,12.376c4.0612,11.148,4.0584,10.964,17.535,7.8888l13.814-4.4868z"/>
  <path style="fill:#333333;" d="m749.7,502.42,6.3351-18.741,20.373,47.689-16.522-5.1033c-16.021-6.401-16.033-6.5495-10.186-23.844z"/>
 </g>
</svg>
